<?xml version="1.0" encoding="UTF-8"?>
<svg version="1.1" xmlns="http://www.w3.org/2000/svg" width="1024" height="1024">
<path d="M0 0 C2.15557202 1.56475142 4.13343214 3.25468332 6.13671875 5.01171875 C7.21111533 5.92970286 8.28673815 6.84625286 9.36328125 7.76171875 C11.78834059 9.82898795 14.20318985 11.90749707 16.61328125 13.9921875 C19.6378552 16.59881735 22.71618905 19.12981227 25.82421875 21.63671875 C30.50979062 25.43731438 34.94883508 29.45809855 39.38671875 33.54296875 C42.07409509 35.95549979 44.82637319 38.24428085 47.63671875 40.51171875 C51.42132209 43.56520554 55.05879412 46.71840176 58.63671875 50.01171875 C63.10656995 54.12550784 67.72716768 57.98259172 72.453125 61.796875 C75.94222791 64.67652762 79.26668796 67.71865751 82.609375 70.765625 C85.20634268 73.07359473 87.87075888 75.26727738 90.57421875 77.44921875 C95.34668078 81.30880478 99.86780984 85.38371866 104.3828125 89.5390625 C107.96879159 92.75881394 111.70373367 95.77077051 115.453125 98.796875 C118.94365304 101.67770382 122.26945943 104.72106278 125.61328125 107.76953125 C128.18754233 110.05687779 130.82961364 112.22720146 133.51171875 114.38671875 C138.65781949 118.55018356 143.5174975 122.96234712 148.37109375 127.45703125 C152.8955395 131.63639215 157.51854885 135.68193145 162.26953125 139.6015625 C178.78845748 153.27918599 178.78845748 153.27918599 180.13671875 160.01171875 C180.22683889 161.51646338 180.2674921 163.02461223 180.27093983 164.53204918 C180.27539767 165.43851263 180.27985551 166.34497609 180.28444844 167.27890813 C180.2841719 168.76692542 180.2841719 168.76692542 180.28388977 170.28500366 C180.28756646 171.34182803 180.29124315 172.39865239 180.29503125 173.48750174 C180.30607323 177.04033807 180.30991277 180.59314516 180.3137207 184.14599609 C180.31998481 186.68854363 180.32663157 189.23109025 180.33363342 191.77363586 C180.35286056 199.4101761 180.3634601 207.04671119 180.37236121 214.68326944 C180.376746 218.27975929 180.38211219 221.87624767 180.38735008 225.47273636 C180.40435796 237.42768485 180.41885329 249.38263244 180.42609882 261.33759117 C180.42800869 264.43860246 180.42992903 267.53961374 180.43188477 270.640625 C180.43236851 271.41135836 180.43285225 272.18209171 180.43335065 272.97618063 C180.44165542 285.46848111 180.46700183 297.96068597 180.49946544 310.45294468 C180.53252424 323.27874296 180.55054638 336.10449262 180.55374306 348.93033373 C180.55590891 356.131568 180.56466872 363.33266269 180.59020424 370.53385544 C180.61416107 377.30540981 180.61774443 384.07666931 180.60744286 390.84827232 C180.60694584 393.33555244 180.61331465 395.82284468 180.6269989 398.3100872 C180.64461796 401.70185133 180.63766016 405.09270276 180.62446594 408.48446655 C180.63543519 409.47201663 180.64640443 410.45956671 180.65770608 411.47704256 C180.60417306 417.16467129 180.00433977 420.53697163 176.13671875 425.01171875 C169.54460074 430.31407454 163.02623166 430.16014241 154.95166016 430.14543152 C154.03605127 430.14769708 153.12044239 430.14996263 152.17708778 430.15229684 C149.11413939 430.15861861 146.05123544 430.15780865 142.98828125 430.15698242 C140.79026228 430.15997499 138.59224383 430.16337774 136.39422607 430.16716003 C130.42742384 430.17599279 124.46063596 430.1783378 118.49382782 430.17897582 C113.51349295 430.17992553 108.53316142 430.18360441 103.55282784 430.18714792 C92.47622625 430.19482429 81.39963033 430.19781678 70.32302642 430.19714256 C69.65890817 430.19710261 68.99478992 430.19706265 68.31054688 430.19702148 C67.64561604 430.1969806 66.9806852 430.19693972 66.29560494 430.1968976 C55.51385866 430.19649095 44.73214727 430.20606682 33.95041108 430.22015985 C22.8738091 430.23452389 11.79722151 430.24124691 0.72060966 430.24056607 C-5.4957447 430.24031091 -11.71205956 430.24317247 -17.92840576 430.25374413 C-23.77245279 430.2634116 -29.61642238 430.26351355 -35.46047211 430.25622749 C-37.60588443 430.25518008 -39.75130154 430.2575538 -41.89670563 430.26358795 C-44.82396951 430.27128839 -47.75096469 430.26667594 -50.67822266 430.25895691 C-51.52822531 430.26410047 -52.37822796 430.26924404 -53.25398827 430.27454346 C-58.85290542 430.24188981 -63.64509988 429.86020322 -68.11328125 426.13671875 C-71.79116754 421.67071397 -72.25127157 418.15633142 -72.109375 412.48046875 C-71.7645423 409.02119469 -70.883578 406.8401342 -68.86328125 404.01171875 C-65.49068039 401.28151805 -62.10847414 399.70396483 -58.11328125 398.13671875 C-54.52119413 396.59140232 -54.52119413 396.59140232 -52.36328125 393.32421875 C-50.58530616 381.5451338 -50.55464545 369.90476677 -50.86328125 358.01171875 C-50.89083496 356.93809082 -50.89083496 356.93809082 -50.91894531 355.84277344 C-51.37030047 344.71886842 -55.03560853 334.48884883 -58.58764648 324.0324707 C-67.31938441 298.30982776 -67.41574879 270.83206459 -56.11328125 245.76171875 C-53.91804235 240.68480402 -52.35043346 235.51013796 -53.86328125 230.01171875 C-57.06476098 226.70513994 -61.42413333 225.60258542 -65.67578125 224.13671875 C-75.52876432 220.55130931 -81.81828709 216.60024681 -86.86328125 207.01171875 C-88.88183973 202.35624055 -89.9642411 198.47563653 -89.61328125 193.38671875 C-87.86203423 190.00931377 -86.74392761 188.94532186 -83.86328125 186.63671875 C-79.222558 182.83773182 -76.66855087 178.67514404 -73.80078125 173.51171875 C-65.18998706 158.21039332 -54.29470849 152.47176611 -37.796875 147.28515625 C-34.50993714 145.85833635 -33.56028492 145.12116755 -31.86328125 142.01171875 C-30.54885314 138.67832907 -29.35423005 135.33415849 -28.20117188 131.94335938 C-26.68116958 127.66409169 -25.11419783 124.31303714 -21.86328125 121.01171875 C-18.55078125 120.19921875 -18.55078125 120.19921875 -14.86328125 121.01171875 C-1.60285474 130.64429272 5.70235784 152.55188295 9.38671875 167.63671875 C9.63204346 168.63928711 9.63204346 168.63928711 9.88232422 169.66210938 C12.04876861 179.19723922 12.23479924 188.71443592 12.07421875 198.44921875 C11.96708913 214.37837287 13.61431306 228.45289521 25.28125 240.3203125 C28.93024386 243.93192204 32.855095 246.95074399 37.01171875 249.94921875 C47.10868062 257.40655787 55.46823339 264.99458289 63.13671875 275.01171875 C63.73226563 275.78 64.3278125 276.54828125 64.94140625 277.33984375 C87.15446661 307.43495778 94.03410676 346.76767319 88.79948425 383.36976624 C88.41349649 385.75995583 88.00897801 388.14597276 87.59375 390.53125 C87.3837738 391.76276794 87.3837738 391.76276794 87.16955566 393.01916504 C86.82842385 395.01722281 86.48302291 397.01455095 86.13671875 399.01171875 C93.55655179 399.03712815 100.97637354 399.05461063 108.39624023 399.06665039 C110.91903096 399.07167103 113.44181879 399.07848885 115.96459961 399.0871582 C119.59619869 399.09932317 123.22775922 399.10496985 126.859375 399.109375 C128.54414696 399.11711693 128.54414696 399.11711693 130.26295471 399.12501526 C135.65295377 399.12539912 140.84031911 399.06600251 146.13671875 398.01171875 C150.619688 393.5287495 148.26797783 375.63676906 148.27224731 369.16940308 C148.27030385 367.41802967 148.26825574 365.66665638 148.26611328 363.9152832 C148.26747138 362.03273993 148.2692536 360.15019693 148.27142334 358.26765442 C148.27595066 353.1929827 148.27422717 348.11833149 148.27104425 343.04365945 C148.26849435 337.70343744 148.27086565 332.36321708 148.27243042 327.022995 C148.27424526 318.05316862 148.27186463 309.08335051 148.26708984 300.11352539 C148.26165686 289.78895984 148.26340564 279.46441407 148.26891625 269.13984901 C148.27347689 260.23403389 148.27408332 251.32822467 148.27147758 242.42240876 C148.2699299 237.12183095 148.269679 231.82126239 148.27301407 226.5206852 C148.27593561 221.52929335 148.27383973 216.53792658 148.26811981 211.5465374 C148.26681455 209.73070441 148.2671475 207.91486925 148.26938248 206.09903717 C148.27483606 201.21173626 148.25232077 196.32644692 148.17475367 191.43971276 C148.14842928 189.75927118 148.1282613 188.07872606 148.1130271 186.39814734 C148.08191316 183.79420653 148.01607229 181.19326526 147.94113159 178.59025574 C147.93330145 177.40769714 147.93330145 177.40769714 147.92531312 176.20124847 C147.76282762 171.97627267 147.49742244 170.4447166 144.68878365 167.0731554 C143.84660223 166.39288131 143.00442081 165.71260721 142.13671875 165.01171875 C141.32618042 164.23876465 141.32618042 164.23876465 140.49926758 163.45019531 C138.98472992 162.05167487 137.46845528 160.6551347 135.94921875 159.26171875 C135.41619141 158.76800781 134.88316406 158.27429688 134.33398438 157.765625 C131.45591281 155.08245675 131.45591281 155.08245675 128.13671875 153.01171875 C128.13671875 152.35171875 128.13671875 151.69171875 128.13671875 151.01171875 C127.58113281 150.77582031 127.02554687 150.53992188 126.453125 150.296875 C123.57296284 148.69894355 121.47302799 146.70671375 119.07421875 144.44921875 C115.38308416 141.01637045 111.63261616 137.73233783 107.69921875 134.57421875 C103.16435714 130.91665611 98.88135692 127.06554848 94.61962891 123.10009766 C90.50892599 119.29773068 86.21396291 115.76901283 81.8515625 112.2578125 C79.0299838 109.92341285 76.33081163 107.49181277 73.63671875 105.01171875 C69.17088149 100.90162386 64.55568708 97.04681287 59.83203125 93.23828125 C56.28133226 90.30509513 52.90453541 87.19852455 49.5078125 84.08984375 C46.65165378 81.58658767 43.65382906 79.36647313 40.53515625 77.203125 C40.07367187 76.80996094 39.6121875 76.41679687 39.13671875 76.01171875 C39.13671875 75.35171875 39.13671875 74.69171875 39.13671875 74.01171875 C38.5422998 73.73569824 37.94788086 73.45967773 37.33544922 73.17529297 C35.25397151 72.07376923 33.71461051 70.94668626 31.95703125 69.39453125 C31.36510986 68.87608643 30.77318848 68.3576416 30.16333008 67.82348633 C29.53579834 67.26685303 28.9082666 66.71021973 28.26171875 66.13671875 C26.9143692 64.95537927 25.56670575 63.77439772 24.21875 62.59375 C23.5376416 61.9951416 22.8565332 61.3965332 22.15478516 60.77978516 C17.41388048 56.6261883 12.61849698 52.53579457 7.81982422 48.44921875 C6.11939487 46.99692284 4.42690603 45.53570586 2.734375 44.07421875 C1.66052446 43.15712076 0.58632187 42.24043479 -0.48828125 41.32421875 C-1.42929687 40.51597656 -2.3703125 39.70773438 -3.33984375 38.875 C-6.31900841 36.57185148 -6.31900841 36.57185148 -9.86328125 36.01171875 C-12.27315164 37.43036142 -12.27315164 37.43036142 -14.67578125 39.63671875 C-15.64644531 40.46945313 -16.61710938 41.3021875 -17.6171875 42.16015625 C-18.69923783 43.11065537 -19.78126823 44.06117716 -20.86328125 45.01171875 C-22.03798938 46.02598378 -23.21380567 47.03896653 -24.390625 48.05078125 C-27.57830622 50.79660985 -30.75265106 53.55740554 -33.92382812 56.32226562 C-37.06484282 59.05839625 -40.21436479 61.78469036 -43.36328125 64.51171875 C-47.12619608 67.7720609 -50.8884393 71.03316942 -54.6484375 74.296875 C-61.27785951 80.04967922 -67.92159051 85.78475842 -74.59179688 91.49023438 C-78.88611119 95.16624472 -83.15861483 98.8667524 -87.42578125 102.57421875 C-92.59350478 107.06203107 -97.79268333 111.50936465 -103.02416992 115.92260742 C-116.18888839 127.03140524 -129.37139426 138.16902094 -142.11328125 149.76171875 C-146.44915148 153.69813695 -150.9497168 157.40054038 -155.515625 161.06640625 C-157.82400922 162.90496126 -157.82400922 162.90496126 -159.5546875 164.76953125 C-160.86328125 166.01171875 -160.86328125 166.01171875 -162.86328125 166.01171875 C-162.86328125 166.67171875 -162.86328125 167.33171875 -162.86328125 168.01171875 C-163.52328125 168.01171875 -164.18328125 168.01171875 -164.86328125 168.01171875 C-166.06115177 172.28348434 -166.00507053 176.44297502 -165.99699402 180.84910583 C-165.99925958 181.75146078 -166.00152513 182.65381572 -166.00385934 183.58351475 C-166.01020019 186.61355076 -166.00936992 189.64354206 -166.00854492 192.67358398 C-166.01153633 194.84337421 -166.01493882 197.0131639 -166.01872253 199.18295288 C-166.0275679 205.08162679 -166.02990086 210.9802862 -166.03053832 216.87896609 C-166.03148701 221.79964701 -166.03516479 226.72032453 -166.03871042 231.64100415 C-166.04685677 243.2474062 -166.04929446 254.85380049 -166.04858398 266.46020508 C-166.04798292 278.44239037 -166.05854013 290.42451396 -166.07432765 302.40668911 C-166.08739135 312.68701974 -166.09276838 322.96733565 -166.09212857 333.24767452 C-166.09187327 339.39080928 -166.09474231 345.53390406 -166.10530663 351.67703056 C-166.11496809 357.45292387 -166.1150802 363.22873883 -166.10778999 369.00463486 C-166.10674177 371.12627718 -166.10912108 373.24792432 -166.11515045 375.36955833 C-166.12283962 378.26224782 -166.11824595 381.15466463 -166.11051941 384.04734802 C-166.11566297 384.88995491 -166.12080654 385.7325618 -166.12610596 386.60070223 C-166.10090507 390.86032438 -165.83567856 394.12575943 -163.86328125 398.01171875 C-155.91415113 399.52917384 -147.87710136 398.99770017 -139.82226562 398.796875 C-133.08272136 398.71454853 -127.93688259 398.98209728 -121.86328125 402.01171875 C-117.17321608 406.822042 -116.51193328 411.01711758 -116.578125 417.50390625 C-117.10007834 422.09423559 -119.5365254 424.77056005 -122.80078125 427.82421875 C-126.64288106 430.03633682 -130.7226987 430.13830101 -135.07739258 430.15698242 C-136.59971245 430.1665522 -136.59971245 430.1665522 -138.15278625 430.17631531 C-139.23931992 430.17742813 -140.32585358 430.17854095 -141.4453125 430.1796875 C-142.57345871 430.1830159 -143.70160492 430.1863443 -144.86393738 430.18977356 C-147.24856153 430.19483103 -149.63319275 430.19718225 -152.01782227 430.19702148 C-155.6519752 430.19920445 -159.28582276 430.21736332 -162.91992188 430.23632812 C-165.24088438 430.23926305 -167.56184833 430.24124718 -169.8828125 430.2421875 C-170.96327347 430.24937302 -172.04373444 430.25655853 -173.15693665 430.26396179 C-180.16179973 430.24292244 -186.52096475 430.01710865 -192.67578125 426.32421875 C-198.23348135 420.44893579 -198.29833618 414.14572357 -198.2509613 406.46705627 C-198.25634684 405.41724687 -198.26173238 404.36743747 -198.26728112 403.28581566 C-198.28156775 399.77448965 -198.27445502 396.26354026 -198.26733398 392.75219727 C-198.27303715 390.23215431 -198.2800012 387.71211393 -198.28813171 385.19207764 C-198.3042198 379.06147964 -198.30616263 372.9310203 -198.30091881 366.8004076 C-198.29687342 361.81636466 -198.29832505 356.83235197 -198.30366707 351.84831047 C-198.30441549 351.13830084 -198.30516391 350.42829122 -198.30593501 349.69676615 C-198.30746653 348.25427373 -198.30900488 346.81178132 -198.31054998 345.36928891 C-198.32426999 331.84955607 -198.31884079 318.32988112 -198.30736477 304.8101496 C-198.29743227 292.44870971 -198.31037417 280.0874195 -198.33429896 267.7260027 C-198.35869644 255.0243875 -198.36829628 242.322842 -198.36164623 229.62120384 C-198.35815553 222.49374312 -198.36037624 215.36639752 -198.37789726 208.23895454 C-198.39416816 201.53709429 -198.3894276 194.83556549 -198.37059212 188.13369751 C-198.36690208 185.67467746 -198.3700267 183.21563628 -198.38047791 180.75663567 C-198.39366031 177.39854816 -198.38216341 174.04141148 -198.36448669 170.68336487 C-198.3740917 169.71146873 -198.38369671 168.73957258 -198.39359277 167.73822504 C-198.3108473 160.09251187 -196.42492081 154.43191451 -191.015625 148.921875 C-189.95565161 147.95967416 -188.88355029 147.01069366 -187.80078125 146.07421875 C-187.22859863 145.56262207 -186.65641602 145.05102539 -186.06689453 144.52392578 C-181.66861571 140.62287549 -177.12684561 136.90304433 -172.54296875 133.22265625 C-169.7307481 130.90236925 -167.04530862 128.48100741 -164.36328125 126.01171875 C-159.9902403 121.99074466 -155.48228967 118.20982356 -150.86328125 114.4765625 C-145.41593252 110.00094134 -140.12533807 105.34258551 -134.81152344 100.70996094 C-131.62399193 97.93145603 -128.43202928 95.15807451 -125.23828125 92.38671875 C-124.61832275 91.84853516 -123.99836426 91.31035156 -123.35961914 90.75585938 C-118.75052703 86.76216003 -114.09714883 82.82360378 -109.4296875 78.8984375 C-106.14063406 76.122281 -102.92106224 73.28380129 -99.73828125 70.38671875 C-95.47862007 66.51304629 -91.05733328 62.88218781 -86.58203125 59.26171875 C-83.94180396 57.07670306 -81.39598405 54.82000484 -78.86328125 52.51171875 C-74.56336334 48.59280623 -70.10408578 44.92001006 -65.58203125 41.26171875 C-62.08419974 38.36696164 -58.74542721 35.31582336 -55.390625 32.2578125 C-52.79365732 29.94984277 -50.12924112 27.75616012 -47.42578125 25.57421875 C-43.67675269 22.54454161 -40.08355258 19.41566927 -36.55078125 16.13671875 C-32.33397994 12.27131755 -28.0149549 8.58517981 -23.55078125 5.01171875 C-22.97610107 4.54266113 -22.4014209 4.07360352 -21.80932617 3.59033203 C-15.24202463 -1.59002092 -7.79001092 -4.13180873 0 0 Z M-1.6796875 331.2890625 C-13.74939125 346.33840689 -21.39722205 365.51788779 -19.86328125 385.01171875 C-19.1665662 390.46351398 -18.33138602 395.43723494 -13.86328125 399.01171875 C-9.33120941 400.068458 -5.30470193 400.49219231 -0.86328125 399.01171875 C-1.38212645 394.08268931 -2.98822465 389.98565561 -4.92578125 385.4765625 C-9.07895202 374.55718434 -6.8479852 362.87804525 -2.31640625 352.453125 C0.61821579 346.28967283 3.90674554 340.4666291 7.97265625 334.9765625 C9.35475785 332.64368631 9.82806587 330.69699881 10.13671875 328.01171875 C9.80671875 327.35171875 9.47671875 326.69171875 9.13671875 326.01171875 C3.63871433 325.54723217 1.93546572 327.41421963 -1.6796875 331.2890625 Z " fill="#51A3FE" transform="translate(520.86328125,180.98828125)"/>
<path d="M0 0 C5.61 0 11.22 0 17 0 C18.1687481 3.5062443 18.12514267 6.6477866 18.09765625 10.29296875 C18.0962413 10.99899734 18.09482635 11.70502594 18.09336853 12.43244934 C18.08777764 14.68417626 18.07522688 16.93580321 18.0625 19.1875 C18.05748382 20.71549335 18.05292112 22.24348827 18.04882812 23.77148438 C18.0378112 27.51436135 18.02055287 31.25716373 18 35 C18.88751953 34.47599609 18.88751953 34.47599609 19.79296875 33.94140625 C20.97826172 33.25884766 20.97826172 33.25884766 22.1875 32.5625 C22.96480469 32.11003906 23.74210937 31.65757812 24.54296875 31.19140625 C31.53559006 27.80070752 39.95072101 27.99580971 47.1875 30.5 C52.94905264 33.08182783 57.24234353 36.96796499 59.7897644 42.81170654 C62.09809113 49.0910669 62.39552614 54.73228706 62.29296875 61.37890625 C62.28872391 62.43158188 62.28447906 63.48425751 62.28010559 64.5688324 C62.26343768 67.90032542 62.2258075 71.23119268 62.1875 74.5625 C62.17243781 76.83397558 62.1587521 79.10546073 62.14648438 81.37695312 C62.11357309 86.91820644 62.06187342 92.45899746 62 98 C56.39 98 50.78 98 45 98 C44.98541748 96.69853027 44.97083496 95.39706055 44.95581055 94.05615234 C44.89771066 89.21408008 44.82047809 84.37246715 44.73754883 79.53076172 C44.70435451 77.43773876 44.67630555 75.34462747 44.65356445 73.25146484 C44.61991769 70.23757388 44.56759607 67.22448837 44.51171875 64.2109375 C44.50532883 63.27945892 44.4989389 62.34798035 44.49235535 61.38827515 C44.37603856 56.21441195 43.95522777 52.4391609 41 48 C37.57670149 45.71780099 36.15862332 45.70258837 32.125 45.6875 C31.09632813 45.67074219 30.06765625 45.65398438 29.0078125 45.63671875 C25.55607417 46.05361702 23.74280091 46.88316933 21 49 C15.66529012 57.79694842 17.9090367 71.14069508 18 81.125 C18.02653267 84.10676655 18.04648349 87.0884732 18.0625 90.0703125 C18.07410156 91.37758301 18.08570313 92.68485352 18.09765625 94.03173828 C18 97 18 97 17 98 C14.30345146 98.07319621 11.63308542 98.09242537 8.9375 98.0625 C8.17888672 98.05798828 7.42027344 98.05347656 6.63867188 98.04882812 C4.75908129 98.0370068 2.87953101 98.01907078 1 98 C0.23310744 91.89242238 -0.14117463 85.9596079 -0.11352539 79.80834961 C-0.11367142 78.93896759 -0.11381744 78.06958557 -0.1139679 77.17385864 C-0.11327767 74.33332726 -0.10552741 71.49286351 -0.09765625 68.65234375 C-0.0957889 66.66980526 -0.0943665 64.6872663 -0.09336853 62.70472717 C-0.08956829 57.5114716 -0.07975952 52.31824443 -0.06866455 47.125 C-0.0583966 41.81575912 -0.05385942 36.5065136 -0.04882812 31.19726562 C-0.03813481 20.79816266 -0.02055843 10.39908815 0 0 Z " fill="#52A2FD" transform="translate(459,653)"/>
<path d="M0 0 C6.37414176 4.54198742 8.88588438 9.63750211 10.25 17.25 C10.56692609 20.85197241 10.64401806 24.44413097 10.69921875 28.05859375 C10.72095657 29.06592056 10.7426944 30.07324738 10.76509094 31.11109924 C10.80876723 33.22461543 10.84801975 35.33822724 10.88305664 37.4519043 C10.93774354 40.70197362 11.00785119 43.95144966 11.08007812 47.20117188 C11.12069391 49.25779488 11.16043887 51.31443531 11.19921875 53.37109375 C11.21997971 54.34702988 11.24074066 55.322966 11.26213074 56.32847595 C11.27577164 57.22353348 11.28941254 58.118591 11.3034668 59.04077148 C11.31741989 59.83160629 11.33137299 60.6224411 11.3457489 61.4372406 C11.25 63.25 11.25 63.25 10.25 64.25 C7.71950598 64.32313567 5.21695163 64.34247527 2.6875 64.3125 C1.62112305 64.30573242 1.62112305 64.30573242 0.53320312 64.29882812 C-1.22790013 64.28700864 -2.98896036 64.26907263 -4.75 64.25 C-5.41 62.27 -6.07 60.29 -6.75 58.25 C-7.636875 59.03375 -8.52375 59.8175 -9.4375 60.625 C-15.46019463 65.9473813 -22.23530056 65.75481003 -29.85546875 65.55859375 C-36.57103001 65.02646803 -40.44416158 62.83927298 -45.125 58.125 C-48.98422132 53.16616493 -50.13006145 47.83649534 -49.47265625 41.6328125 C-48.13226834 35.86826842 -45.66122451 32.50231548 -41.17578125 28.72265625 C-35.20016763 25.09494879 -29.07445192 23.74184639 -22.1875 23.0625 C-21.47142578 22.98064453 -20.75535156 22.89878906 -20.01757812 22.81445312 C-15.57088849 22.33296444 -11.22150939 22.17361416 -6.75 22.25 C-7.14595843 20.76515588 -7.56750706 19.2871169 -8 17.8125 C-8.34804688 16.57693359 -8.34804688 16.57693359 -8.703125 15.31640625 C-9.55770679 13.05004532 -9.55770679 13.05004532 -11.859375 12.46484375 C-12.48328125 12.39394531 -13.1071875 12.32304688 -13.75 12.25 C-13.75 11.59 -13.75 10.93 -13.75 10.25 C-19.28678576 9.96361453 -23.05136305 9.93959669 -27.75 13.25 C-29.37041248 15.51455161 -30.51536509 17.73324423 -31.75 20.25 C-34.23088355 19.96937057 -36.70909185 19.67609401 -39.1875 19.375 C-40.24807617 19.25705078 -40.24807617 19.25705078 -41.33007812 19.13671875 C-43.14673432 18.91072324 -44.95062522 18.58699273 -46.75 18.25 C-47.75 16.25 -47.75 16.25 -47.296875 14.48046875 C-44.48724628 7.27735199 -41.87815557 2.0352067 -34.75 -1.75 C-23.22551133 -6.24168735 -10.66028657 -6.63229555 0 0 Z M-20.9375 35.4375 C-22.72220703 35.76814453 -22.72220703 35.76814453 -24.54296875 36.10546875 C-28.34440109 37.46213096 -29.6708761 38.83134105 -31.75 42.25 C-31.68711949 45.39402573 -31.40921768 47.3387285 -29.5546875 49.90234375 C-25.71652338 52.76850527 -20.28835859 51.79028078 -15.75 51.25 C-11.29139258 49.13802807 -8.62845467 46.84177808 -6.75 42.25 C-6.52194545 39.52854899 -6.61065315 36.990488 -6.75 34.25 C-11.64854003 34.13082937 -16.13025906 34.48863347 -20.9375 35.4375 Z " fill="#52A3FD" transform="translate(342.75,686.75)"/>
<path d="M0 0 C7.27140485 6.1320474 10.95069371 14.29304971 12.125 23.6875 C12.19635865 26.68966014 12.18386763 29.68525096 12.125 32.6875 C9.25186592 33.64521136 7.62054794 33.78402642 4.65356445 33.70922852 C3.75285721 33.68913223 2.85214996 33.66903595 1.92414856 33.64833069 C0.95531235 33.62129562 -0.01352386 33.59426056 -1.01171875 33.56640625 C-2.50358452 33.53098976 -2.50358452 33.53098976 -4.02558899 33.49485779 C-7.20470506 33.41823623 -10.38357663 33.33420512 -13.5625 33.25 C-15.71678488 33.19677782 -17.87108172 33.14403743 -20.02539062 33.09179688 C-25.3087453 32.96262312 -30.59191811 32.82736412 -35.875 32.6875 C-35.25198664 34.30255967 -34.62329247 35.91542877 -33.9921875 37.52734375 C-33.64269043 38.42573975 -33.29319336 39.32413574 -32.93310547 40.24975586 C-31.66593998 43.16914843 -30.52514407 44.89475548 -27.875 46.6875 C-24.80943402 47.42093428 -24.80943402 47.42093428 -21.875 47.6875 C-20.885 48.1825 -20.885 48.1825 -19.875 48.6875 C-19.545 48.3575 -19.215 48.0275 -18.875 47.6875 C-17.3590625 47.873125 -17.3590625 47.873125 -15.8125 48.0625 C-11.29519879 47.63228084 -11.15226083 47.17637041 -8.3125 44 C-6.33984375 42.046875 -6.33984375 42.046875 -3.875 40.6875 C1.02392122 40.96230464 5.47097645 42.17755696 10.125 43.6875 C9.18589151 49.90504584 6.08444988 54.38699013 1.125 58.2421875 C-0.84373242 59.50247454 -2.78189772 60.64699829 -4.875 61.6875 C-5.60203125 62.05359375 -6.3290625 62.4196875 -7.078125 62.796875 C-15.67681268 65.5350046 -27.6960396 64.97203737 -35.76953125 61.01171875 C-44.16455767 55.73172996 -50.56322753 48.51253299 -52.875 38.6875 C-54.84552253 27.0727855 -53.60781638 16.5127146 -46.875 6.6875 C-41.86449771 -0.354287 -35.73426247 -4.51288457 -27.22265625 -6.03125 C-17.12841313 -7.24054368 -8.33630557 -6.166956 0 0 Z M-31.4375 12.08203125 C-34.21445033 15.1982113 -34.875 16.41101373 -34.875 20.6875 C-25.635 20.6875 -16.395 20.6875 -6.875 20.6875 C-6.46155088 15.90714484 -6.46155088 15.90714484 -8.375 13.0625 C-14.98738927 6.78073019 -24.36420424 5.76911479 -31.4375 12.08203125 Z " fill="#53A2FC" transform="translate(790.875,688.3125)"/>
<path d="M0 0 C6.58372486 5.34532748 10.23426245 11.30550453 12.03515625 19.65234375 C13.18635363 31.31702736 12.02003733 42.54520403 4.578125 52.09375 C-1.90584735 58.64338283 -10.29898301 62.99113939 -19.52368164 63.07006836 C-20.28801514 63.05596924 -21.05234863 63.04187012 -21.83984375 63.02734375 C-22.63704834 63.01646729 -23.43425293 63.00559082 -24.25561523 62.99438477 C-34.53466887 62.71554873 -41.48384501 59.87974932 -48.96484375 52.65234375 C-55.9208307 44.75676814 -58.3920178 35.43291735 -57.90234375 25.02734375 C-56.60780719 13.83026978 -52.36087871 6.22959183 -43.96484375 -1.34765625 C-41.39775809 -3.12968569 -38.91412901 -4.33310212 -35.96484375 -5.34765625 C-35.3409375 -5.569375 -34.71703125 -5.79109375 -34.07421875 -6.01953125 C-22.08236447 -9.62683701 -10.04728564 -7.24751293 0 0 Z M-35.53515625 12.30859375 C-40.69130767 19.26203224 -40.63954344 26.19048518 -39.96484375 34.65234375 C-38.44349318 40.06802106 -35.73455404 43.59483716 -30.96484375 46.65234375 C-25.12860127 48.59775791 -18.95197217 48.46066718 -13.27734375 46.15234375 C-12.51421875 45.65734375 -11.75109375 45.16234375 -10.96484375 44.65234375 C-10.96484375 43.99234375 -10.96484375 43.33234375 -10.96484375 42.65234375 C-10.30484375 42.65234375 -9.64484375 42.65234375 -8.96484375 42.65234375 C-5.08854412 34.36329231 -3.67646017 27.9089835 -5.96484375 18.96484375 C-7.89323261 13.84340172 -11.062406 10.98328285 -15.96484375 8.65234375 C-22.79211401 6.73724575 -30.39677862 6.88901137 -35.53515625 12.30859375 Z " fill="#52A3FD" transform="translate(586.96484375,689.34765625)"/>
<path d="M0 0 C0.33 22.11 0.66 44.22 1 67 C-4.28 67 -9.56 67 -15 67 C-15.66 65.02 -16.32 63.04 -17 61 C-17.886875 61.78375 -18.77375 62.5675 -19.6875 63.375 C-25.45544767 68.47225608 -31.78663539 68.59710263 -39.1953125 68.3671875 C-45.73029266 67.73650153 -50.55937594 65.81071869 -54.90625 60.8046875 C-58.60569732 55.51726986 -60.12982592 51.41106327 -60.11352539 44.95605469 C-60.11344986 43.95531921 -60.11337433 42.95458374 -60.11329651 41.92352295 C-60.10813522 40.85047913 -60.10297394 39.7774353 -60.09765625 38.671875 C-60.0962413 37.56773254 -60.09482635 36.46359009 -60.09336853 35.32598877 C-60.08777258 31.80063158 -60.07522079 28.27533798 -60.0625 24.75 C-60.05748448 22.35937592 -60.05292166 19.96875084 -60.04882812 17.578125 C-60.03780447 11.71872551 -60.02054257 5.85937354 -60 0 C-54.72 0 -49.44 0 -44 0 C-43.98018066 1.13953125 -43.96036133 2.2790625 -43.93994141 3.453125 C-43.86345511 7.71001028 -43.77480639 11.96657277 -43.68261719 16.22314453 C-43.64450427 18.05999342 -43.60962161 19.89691246 -43.578125 21.73388672 C-43.53208774 24.38534494 -43.47416016 27.03632756 -43.4140625 29.6875 C-43.40251129 30.49928711 -43.39096008 31.31107422 -43.37905884 32.14746094 C-43.22325611 38.26522506 -43.0566949 44.70825426 -38.8125 49.4375 C-34.79359519 51.6702249 -31.45430934 52.51074946 -26.87890625 51.55859375 C-23.43283349 50.45205663 -21.56680552 49.7382871 -19.30859375 46.796875 C-17.7598867 43.48680262 -17.49150453 41.02669251 -17.3125 37.375 C-17.27833984 36.71491943 -17.24417969 36.05483887 -17.20898438 35.37475586 C-16.83949248 26.88492562 -16.952495 18.37357642 -17.03637695 9.87841797 C-17.04499756 8.7442041 -17.05361816 7.60999023 -17.0625 6.44140625 C-17.07410156 5.41732666 -17.08570313 4.39324707 -17.09765625 3.33813477 C-17 1 -17 1 -16 0 C-13.69301952 -0.2624883 -11.37852439 -0.46040943 -9.0625 -0.625 C-7.16177734 -0.76808594 -7.16177734 -0.76808594 -5.22265625 -0.9140625 C-2 -1 -2 -1 0 0 Z " fill="#52A2FD" transform="translate(668,684)"/>
<path d="M0 0 C5.01107848 3.7636398 7.48358866 8.7766566 8.9609375 14.81640625 C8.6309375 15.47640625 8.3009375 16.13640625 7.9609375 16.81640625 C4.94140625 17.40625 4.94140625 17.40625 1.1484375 17.75390625 C-0.09550781 17.88667969 -1.33945312 18.01945313 -2.62109375 18.15625 C-6.0390625 17.81640625 -6.0390625 17.81640625 -8.31640625 15.40625 C-8.88488281 14.55160156 -9.45335937 13.69695313 -10.0390625 12.81640625 C-15.01155543 10.33015979 -18.74328818 10.84551429 -24.0390625 11.81640625 C-24.6990625 12.14640625 -25.3590625 12.47640625 -26.0390625 12.81640625 C-26.0390625 14.79640625 -26.0390625 16.77640625 -26.0390625 18.81640625 C-21.57783554 20.63731522 -17.20096503 22.05729477 -12.51513672 23.20361328 C-4.42873451 25.19973777 2.07430264 27.18960861 7.3984375 33.87890625 C10.47866828 39.66974012 10.88636011 45.38996258 9.0234375 51.75390625 C6.54775692 57.80164024 1.13847617 62.40620177 -4.75 65.01953125 C-13.74886901 67.1997798 -26.1091442 67.69600242 -34.3203125 63.00390625 C-35.17109375 62.41609375 -35.17109375 62.41609375 -36.0390625 61.81640625 C-37.1321875 61.09453125 -38.2253125 60.37265625 -39.3515625 59.62890625 C-43.74422967 55.03192898 -46.0390625 50.19109992 -46.0390625 43.81640625 C-40.65879225 42.62551639 -35.58614866 41.52445435 -30.0390625 41.81640625 C-29.4821875 42.93015625 -28.9253125 44.04390625 -28.3515625 45.19140625 C-26.91804785 47.6724893 -26.20731023 48.71181982 -23.7265625 50.25390625 C-18.61683841 51.32338339 -13.60282033 51.63519785 -9.0390625 48.81640625 C-7.95881592 46.41530408 -7.95881592 46.41530408 -8.0390625 43.81640625 C-10.30516523 40.41725216 -10.78601426 40.32341669 -14.546875 39.38671875 C-15.45179688 39.14824219 -16.35671875 38.90976562 -17.2890625 38.6640625 C-19.1818383 38.18829684 -21.07505767 37.71429186 -22.96875 37.2421875 C-31.17287179 35.07527962 -38.22158373 32.13897398 -43.0390625 24.81640625 C-44.64622895 19.99490691 -44.97657408 14.70800825 -43.390625 9.81640625 C-40.10335233 3.52282439 -34.98091738 -0.78548749 -28.2890625 -3.05859375 C-18.7025713 -5.49879151 -8.68215869 -5.03964384 0 0 Z " fill="#53A3FD" transform="translate(722.0390625,686.18359375)"/>
<path d="M0 0 C5.75605553 4.03399594 9.33838949 8.87398781 11.48828125 15.59375 C11.48828125 17.24375 11.48828125 18.89375 11.48828125 20.59375 C6.53828125 21.25375 1.58828125 21.91375 -3.51171875 22.59375 C-4.9765625 20.57552083 -6.44140625 18.55729167 -7.90625 16.5390625 C-10.46714181 13.4360841 -12.81703896 12.2965836 -16.69921875 11.78125 C-21.5389715 11.34772166 -25.31267185 12.12764309 -29.51171875 14.59375 C-33.99591775 18.95994377 -35.57787421 23.74763639 -35.82421875 29.90625 C-35.66709635 35.38704911 -34.80391696 41.02648801 -31.046875 45.234375 C-26.057019 49.48002265 -22.64758338 49.94170408 -16.27734375 49.875 C-12.41184015 49.48189794 -10.34315394 48.21282755 -7.51171875 45.59375 C-6.48005544 43.94649514 -5.47483322 42.28200007 -4.51171875 40.59375 C-2.40707082 40.90299214 -0.30301345 41.2162556 1.80078125 41.53125 C2.97253906 41.70527344 4.14429688 41.87929688 5.3515625 42.05859375 C8.48828125 42.59375 8.48828125 42.59375 11.48828125 43.59375 C11.18645459 49.63028324 8.45711806 53.29060512 4.48828125 57.59375 C-4.6085345 65.80439484 -13.59270996 66.37614357 -25.35595703 65.78466797 C-32.88764533 65.11764869 -39.2694923 61.96562016 -44.72265625 56.79296875 C-53.0595832 46.54473759 -54.57552538 35.29998154 -53.51171875 22.59375 C-51.89069033 13.77666973 -47.14588229 7.47253848 -40.51171875 1.59375 C-37.94092542 -0.15647645 -35.43440409 -1.36330005 -32.51171875 -2.40625 C-30.90296875 -3.025 -30.90296875 -3.025 -29.26171875 -3.65625 C-19.31010356 -5.64657304 -8.96952434 -5.02181767 0 0 Z " fill="#53A2FC" transform="translate(275.51171875,686.40625)"/>
<path d="M0 0 C1.37376679 0.00398964 2.74753489 0.01873698 4.12109375 0.04296875 C4.81912109 0.04361328 5.51714844 0.04425781 6.23632812 0.04492188 C11.41828217 0.09015717 11.41828217 0.09015717 12.55859375 1.23046875 C12.64491249 2.57314288 12.66565848 3.92021197 12.65625 5.265625 C12.65302734 6.07451172 12.64980469 6.88339844 12.64648438 7.71679688 C12.63810547 8.56693359 12.62972656 9.41707031 12.62109375 10.29296875 C12.61658203 11.14697266 12.61207031 12.00097656 12.60742188 12.88085938 C12.59559748 14.99742538 12.57766144 17.1139556 12.55859375 19.23046875 C17.50859375 18.90046875 22.45859375 18.57046875 27.55859375 18.23046875 C29.45899422 23.93167017 29.84878323 26.52340905 29.55859375 32.23046875 C28.55859375 33.23046875 28.55859375 33.23046875 24.9609375 33.328125 C23.47262508 33.32145095 21.98432943 33.30949058 20.49609375 33.29296875 C19.35817383 33.28620117 19.35817383 33.28620117 18.19726562 33.27929688 C16.31767504 33.26747555 14.43812476 33.24953953 12.55859375 33.23046875 C12.65228795 37.85728633 12.75841662 42.48359045 12.87597656 47.10986328 C12.91421204 48.6830264 12.94907441 50.25627533 12.98046875 51.82958984 C13.02623797 54.09373598 13.08421136 56.35729422 13.14453125 58.62109375 C13.15608246 59.32228333 13.16763367 60.0234729 13.17953491 60.74591064 C13.31421514 65.82092909 13.31421514 65.82092909 15.55859375 70.23046875 C21.17022469 71.4882481 25.91532026 71.13742342 31.55859375 70.23046875 C32.05359375 77.65546875 32.05359375 77.65546875 32.55859375 85.23046875 C27.49725931 86.91758023 23.79552681 87.56744573 18.62109375 87.54296875 C17.60499023 87.56713867 17.60499023 87.56713867 16.56835938 87.59179688 C10.2998099 87.59780699 6.09311272 85.78574176 0.80859375 82.54296875 C-4.46370285 77.12421947 -4.93079539 70.04426579 -5.12890625 62.85546875 C-5.16234131 61.99856445 -5.19577637 61.14166016 -5.23022461 60.25878906 C-5.53660766 51.58456752 -5.53573248 42.90848199 -5.44140625 34.23046875 C-6.06789063 34.25367188 -6.694375 34.276875 -7.33984375 34.30078125 C-8.15710938 34.31882812 -8.974375 34.336875 -9.81640625 34.35546875 C-10.62851562 34.37867188 -11.440625 34.401875 -12.27734375 34.42578125 C-14.44140625 34.23046875 -14.44140625 34.23046875 -16.44140625 32.23046875 C-16.7421875 29.48046875 -16.7421875 29.48046875 -16.75390625 26.23046875 C-16.77066406 25.15796875 -16.78742188 24.08546875 -16.8046875 22.98046875 C-16.68480469 22.07296875 -16.56492187 21.16546875 -16.44140625 20.23046875 C-13.35252103 18.17121194 -12.73204698 17.99143135 -9.25390625 18.10546875 C-7.99578125 18.14671875 -6.73765625 18.18796875 -5.44140625 18.23046875 C-5.46460938 17.09867188 -5.4878125 15.966875 -5.51171875 14.80078125 C-5.53047526 13.319017 -5.54867559 11.83724563 -5.56640625 10.35546875 C-5.58316406 9.60910156 -5.59992188 8.86273437 -5.6171875 8.09375 C-5.63480215 6.13852414 -5.54460814 4.18304854 -5.44140625 2.23046875 C-3.44140625 0.23046875 -3.44140625 0.23046875 0 0 Z " fill="#52A2FD" transform="translate(373.44140625,664.76953125)"/>
<path d="M0 0 C1.25941406 -0.00128906 2.51882813 -0.00257813 3.81640625 -0.00390625 C5.12996094 -0.00003906 6.44351562 0.00382813 7.796875 0.0078125 C9.09496094 0.00394531 10.39304687 0.00007812 11.73046875 -0.00390625 C18.09427389 0.00258081 24.25867521 0.12733893 30.546875 1.1328125 C30.57373438 3.27857887 30.59320588 5.42443895 30.609375 7.5703125 C30.62097656 8.76527344 30.63257813 9.96023438 30.64453125 11.19140625 C30.546875 14.1328125 30.546875 14.1328125 29.546875 15.1328125 C27.01378654 15.30536725 24.50529583 15.41676808 21.96875 15.484375 C21.20516174 15.50752777 20.44157349 15.53068054 19.65484619 15.55453491 C18.03412716 15.60225661 16.41333299 15.64748046 14.79248047 15.69042969 C12.32099079 15.75716136 9.8500306 15.83506552 7.37890625 15.9140625 C5.80470679 15.95901386 4.23048832 16.00330569 2.65625 16.046875 C1.91961121 16.07077301 1.18297241 16.09467102 0.42401123 16.11929321 C-3.35221412 16.21066846 -6.78468919 16.0629524 -10.453125 15.1328125 C-10.64845461 13.3628257 -10.83411382 11.59176971 -11.015625 9.8203125 C-11.12003906 8.83417969 -11.22445313 7.84804688 -11.33203125 6.83203125 C-11.453125 4.1328125 -11.453125 4.1328125 -10.453125 1.1328125 C-7.11147418 -0.23512049 -3.56326669 0.00351605 0 0 Z " fill="#53A3FD" transform="translate(419.453125,705.8671875)"/>
<path d="M0 0 C0.66 0.33 1.32 0.66 2 1 C3.29930238 5.28769786 3.07516774 9.56510345 3 14 C-0.82810821 15.27603607 -4.23475107 14.86283987 -8.1875 14.5625 C-8.93708984 14.51029297 -9.68667969 14.45808594 -10.45898438 14.40429688 C-12.30637082 14.27486216 -14.15324371 14.13813482 -16 14 C-16 13.67 -16 13.34 -16 13 C-10.72 13 -5.44 13 0 13 C0 9.7 0 6.4 0 3 C-2.31 3 -4.62 3 -7 3 C-7 2.67 -7 2.34 -7 2 C-4.69 2 -2.38 2 0 2 C0 1.34 0 0.68 0 0 Z " fill="#5BAAFD" transform="translate(400,683)"/>
<path d="M0 0 C0.125 3.375 0.125 3.375 0 7 C-0.66 7.66 -1.32 8.32 -2 9 C-2 6.36 -2 3.72 -2 1 C-4.64 1 -7.28 1 -10 1 C-10 0.67 -10 0.34 -10 0 C-2.25 -1.125 -2.25 -1.125 0 0 Z " fill="#5CA9FD" transform="translate(386,666)"/>
<path d="M0 0 C1.65 0 3.3 0 5 0 C5 0.33 5 0.66 5 1 C3.35 1 1.7 1 0 1 C0 0.67 0 0.34 0 0 Z " fill="#5AA4F6" transform="translate(322,680)"/>
<path d="" fill="#58A0F3" transform="translate(0,0)"/>
<path d="" fill="#5BA6FC" transform="translate(0,0)"/>
<path d="M0 0 C2 1 2 1 2 1 Z " fill="#569AE7" transform="translate(547,750)"/>
<path d="M0 0 C2 1 2 1 2 1 Z " fill="#58A3F5" transform="translate(705,736)"/>
<path d="M0 0 C2 1 2 1 2 1 Z " fill="#59A3F5" transform="translate(285,728)"/>
<path d="" fill="#59A5FA" transform="translate(0,0)"/>
<path d="" fill="#5AA5FA" transform="translate(0,0)"/>
<path d="" fill="#59A3F9" transform="translate(0,0)"/>
<path d="" fill="#57A1F7" transform="translate(0,0)"/>
<path d="M0 0 C2 1 2 1 2 1 Z " fill="#59A4F9" transform="translate(486,699)"/>
<path d="" fill="#5698E4" transform="translate(0,0)"/>
<path d="M0 0 C2 1 2 1 2 1 Z " fill="#599FED" transform="translate(257,680)"/>
<path d="" fill="#56A0F1" transform="translate(0,0)"/>
<path d="" fill="#549FF2" transform="translate(0,0)"/>
<path d="" fill="#559DEF" transform="translate(0,0)"/>
<path d="" fill="#58A5FC" transform="translate(0,0)"/>
<path d="" fill="#569CED" transform="translate(0,0)"/>
<path d="M0 0 C2 1 2 1 2 1 Z " fill="#559DED" transform="translate(348,312)"/>
<path d="" fill="#549CEE" transform="translate(0,0)"/>
<path d="" fill="#5798E3" transform="translate(0,0)"/>
<path d="" fill="#559AE9" transform="translate(0,0)"/>
<path d="" fill="#5397E4" transform="translate(0,0)"/>
<path d="" fill="#569AE5" transform="translate(0,0)"/>
<path d="" fill="#5591DA" transform="translate(0,0)"/>
<path d="" fill="#549CEA" transform="translate(0,0)"/>
<path d="" fill="#5399E5" transform="translate(0,0)"/>
<path d="" fill="#5B9BEC" transform="translate(0,0)"/>
<path d="" fill="#569CEB" transform="translate(0,0)"/>
<path d="" fill="#5A9BE9" transform="translate(0,0)"/>
<path d="" fill="#5793DC" transform="translate(0,0)"/>
<path d="" fill="#5393DD" transform="translate(0,0)"/>
<path d="" fill="#579FF0" transform="translate(0,0)"/>
<path d="" fill="#57A4F3" transform="translate(0,0)"/>
<path d="" fill="#58A1F4" transform="translate(0,0)"/>
<path d="" fill="#58A1F6" transform="translate(0,0)"/>
<path d="" fill="#5BA2F2" transform="translate(0,0)"/>
<path d="" fill="#5CA4F7" transform="translate(0,0)"/>
<path d="" fill="#5CA6FA" transform="translate(0,0)"/>
<path d="" fill="#5AA2F8" transform="translate(0,0)"/>
<path d="" fill="#57A3F6" transform="translate(0,0)"/>
<path d="" fill="#5AA4F8" transform="translate(0,0)"/>
<path d="" fill="#58A2F3" transform="translate(0,0)"/>
<path d="" fill="#59A5FA" transform="translate(0,0)"/>
<path d="" fill="#58A6F9" transform="translate(0,0)"/>
<path d="" fill="#58A4FA" transform="translate(0,0)"/>
<path d="" fill="#5CA5FC" transform="translate(0,0)"/>
<path d="" fill="#58A3F9" transform="translate(0,0)"/>
<path d="" fill="#5BA6F8" transform="translate(0,0)"/>
<path d="" fill="#5AA5FA" transform="translate(0,0)"/>
<path d="" fill="#5BA4FB" transform="translate(0,0)"/>
<path d="" fill="#58A5FD" transform="translate(0,0)"/>
<path d="" fill="#5BA4F8" transform="translate(0,0)"/>
<path d="" fill="#59A5F8" transform="translate(0,0)"/>
<path d="" fill="#5AA4F9" transform="translate(0,0)"/>
<path d="" fill="#58A3F8" transform="translate(0,0)"/>
<path d="" fill="#5BA7FB" transform="translate(0,0)"/>
<path d="" fill="#57A4FC" transform="translate(0,0)"/>
<path d="" fill="#5BA3F9" transform="translate(0,0)"/>
<path d="" fill="#58A2F8" transform="translate(0,0)"/>
<path d="" fill="#5CA7FD" transform="translate(0,0)"/>
<path d="" fill="#5CA7FA" transform="translate(0,0)"/>
<path d="" fill="#5BA2F6" transform="translate(0,0)"/>
<path d="" fill="#5BA6FA" transform="translate(0,0)"/>
<path d="" fill="#59A4FB" transform="translate(0,0)"/>
<path d="" fill="#59A2F8" transform="translate(0,0)"/>
<path d="" fill="#58A5FA" transform="translate(0,0)"/>
<path d="" fill="#5BA5FC" transform="translate(0,0)"/>
<path d="" fill="#57A5F8" transform="translate(0,0)"/>
<path d="" fill="#5BA3F9" transform="translate(0,0)"/>
<path d="" fill="#5FA8FD" transform="translate(0,0)"/>
<path d="" fill="#5CA6FD" transform="translate(0,0)"/>
<path d="" fill="#5AA7FC" transform="translate(0,0)"/>
<path d="" fill="#5BA3F7" transform="translate(0,0)"/>
<path d="" fill="#5AA5FA" transform="translate(0,0)"/>
<path d="" fill="#59A4F7" transform="translate(0,0)"/>
<path d="" fill="#59A1F7" transform="translate(0,0)"/>
<path d="" fill="#5397E1" transform="translate(0,0)"/>
<path d="" fill="#5DA3F9" transform="translate(0,0)"/>
<path d="" fill="#5DA6FA" transform="translate(0,0)"/>
<path d="" fill="#59A3F4" transform="translate(0,0)"/>
<path d="" fill="#5AA4F7" transform="translate(0,0)"/>
<path d="" fill="#5AA5FA" transform="translate(0,0)"/>
<path d="" fill="#5AA4F9" transform="translate(0,0)"/>
<path d="" fill="#589EEF" transform="translate(0,0)"/>
<path d="" fill="#5AA1F3" transform="translate(0,0)"/>
<path d="" fill="#5BA5F5" transform="translate(0,0)"/>
<path d="" fill="#5BA5F9" transform="translate(0,0)"/>
<path d="" fill="#5BA7FA" transform="translate(0,0)"/>
<path d="" fill="#5CA7FB" transform="translate(0,0)"/>
<path d="" fill="#5B9EED" transform="translate(0,0)"/>
<path d="" fill="#5A9EED" transform="translate(0,0)"/>
<path d="" fill="#5FA8FB" transform="translate(0,0)"/>
<path d="" fill="#5EA2F2" transform="translate(0,0)"/>
<path d="" fill="#5DA5F9" transform="translate(0,0)"/>
<path d="" fill="#599DED" transform="translate(0,0)"/>
<path d="" fill="#59A5FB" transform="translate(0,0)"/>
<path d="" fill="#559AEC" transform="translate(0,0)"/>
<path d="" fill="#569EF0" transform="translate(0,0)"/>
<path d="" fill="#5BA7FE" transform="translate(0,0)"/>
<path d="" fill="#5DA7FC" transform="translate(0,0)"/>
<path d="" fill="#59A6FA" transform="translate(0,0)"/>
<path d="" fill="#58A6F9" transform="translate(0,0)"/>
<path d="" fill="#59A7FA" transform="translate(0,0)"/>
<path d="" fill="#559DEE" transform="translate(0,0)"/>
<path d="" fill="#5AA5FB" transform="translate(0,0)"/>
<path d="" fill="#579EF0" transform="translate(0,0)"/>
<path d="" fill="#569EF0" transform="translate(0,0)"/>
<path d="" fill="#579EF1" transform="translate(0,0)"/>
<path d="" fill="#579EEF" transform="translate(0,0)"/>
<path d="" fill="#5AA6FE" transform="translate(0,0)"/>
<path d="" fill="#5AA6FD" transform="translate(0,0)"/>
<path d="" fill="#579EF0" transform="translate(0,0)"/>
<path d="" fill="#59A5FB" transform="translate(0,0)"/>
<path d="" fill="#58A5FC" transform="translate(0,0)"/>
<path d="" fill="#58A6FD" transform="translate(0,0)"/>
<path d="" fill="#58A5FB" transform="translate(0,0)"/>
<path d="" fill="#56A0F1" transform="translate(0,0)"/>
<path d="" fill="#57A6FA" transform="translate(0,0)"/>
<path d="" fill="#56A0F3" transform="translate(0,0)"/>
<path d="" fill="#58A4FF" transform="translate(0,0)"/>
<path d="" fill="#559FF2" transform="translate(0,0)"/>
<path d="" fill="#57A5FC" transform="translate(0,0)"/>
<path d="" fill="#57A5FC" transform="translate(0,0)"/>
<path d="" fill="#569FF0" transform="translate(0,0)"/>
<path d="" fill="#569FF2" transform="translate(0,0)"/>
<path d="" fill="#579EF0" transform="translate(0,0)"/>
<path d="" fill="#5BA7FD" transform="translate(0,0)"/>
<path d="" fill="#57A0F2" transform="translate(0,0)"/>
<path d="" fill="#579FF2" transform="translate(0,0)"/>
<path d="" fill="#559EEF" transform="translate(0,0)"/>
<path d="" fill="#59A5F9" transform="translate(0,0)"/>
<path d="" fill="#579DEE" transform="translate(0,0)"/>
<path d="" fill="#579CED" transform="translate(0,0)"/>
<path d="" fill="#559BEA" transform="translate(0,0)"/>
<path d="" fill="#59A7F8" transform="translate(0,0)"/>
<path d="" fill="#5BA7FC" transform="translate(0,0)"/>
<path d="" fill="#5AA3F9" transform="translate(0,0)"/>
<path d="" fill="#569CF0" transform="translate(0,0)"/>
<path d="" fill="#5BA5F9" transform="translate(0,0)"/>
<path d="" fill="#58A4F9" transform="translate(0,0)"/>
<path d="" fill="#59A6FB" transform="translate(0,0)"/>
<path d="" fill="#589CEE" transform="translate(0,0)"/>
<path d="" fill="#58A6FB" transform="translate(0,0)"/>
<path d="" fill="#589CF0" transform="translate(0,0)"/>
<path d="" fill="#5398ED" transform="translate(0,0)"/>
<path d="" fill="#55A4F8" transform="translate(0,0)"/>
<path d="" fill="#56A6FA" transform="translate(0,0)"/>
<path d="" fill="#59A5FB" transform="translate(0,0)"/>
<path d="" fill="#549BEF" transform="translate(0,0)"/>
<path d="" fill="#549DEE" transform="translate(0,0)"/>
<path d="" fill="#539BED" transform="translate(0,0)"/>
<path d="" fill="#579BEC" transform="translate(0,0)"/>
</svg>
