<?xml version="1.0" encoding="UTF-8"?>
<svg version="1.1" xmlns="http://www.w3.org/2000/svg" width="506" height="506">
<path d="M0 0 C2.09809179 1.52897377 4.00802287 3.16028042 5.9296875 4.90625 C6.69925781 5.59332031 7.46882812 6.28039063 8.26171875 6.98828125 C9.95135822 8.50762635 11.63472458 10.03397004 13.3125 11.56640625 C15.85841867 13.84253354 18.4619331 16.00919711 21.1171875 18.15625 C27.55680743 23.37143515 33.78424153 28.81956752 40.03320312 34.25976562 C43.00823968 36.84262434 45.99915786 39.40678398 48.9921875 41.96875 C49.56630371 42.46036621 50.14041992 42.95198242 50.73193359 43.45849609 C52.46421758 44.94143249 54.1968818 46.42392327 55.9296875 47.90625 C58.24265288 49.88487368 60.55519539 51.86398914 62.8671875 53.84375 C63.44001465 54.33407715 64.0128418 54.8244043 64.60302734 55.32958984 C67.66447568 57.95332202 70.71681619 60.58695556 73.7578125 63.234375 C79.31990363 68.07626105 84.87470702 72.90261272 90.6171875 77.53125 C95.16164879 81.20203691 99.44066271 85.09523771 103.70483398 89.08227539 C106.41096649 91.59040913 109.13350808 93.88678463 112.1796875 95.96875 C113.0871875 96.608125 113.9946875 97.2475 114.9296875 97.90625 C114.9296875 98.56625 114.9296875 99.22625 114.9296875 99.90625 C115.52120605 100.17937012 116.11272461 100.45249023 116.72216797 100.73388672 C118.86361895 101.8711625 120.44376146 103.05905232 122.25 104.6640625 C123.17026978 105.47363403 123.17026978 105.47363403 124.10913086 106.29956055 C124.75116455 106.87101807 125.39319824 107.44247559 126.0546875 108.03125 C131.33333033 112.68425683 136.6638589 117.16130373 142.26953125 121.41796875 C142.81738281 121.90910156 143.36523438 122.40023437 143.9296875 122.90625 C143.9296875 123.56625 143.9296875 124.22625 143.9296875 124.90625 C144.74759766 125.24462891 144.74759766 125.24462891 145.58203125 125.58984375 C148.62770328 127.29764986 150.98308212 129.57664109 153.4921875 131.96875 C157.46288789 135.6901715 161.49443918 139.24749065 165.7421875 142.65625 C174.47555615 149.77652892 179.92493148 154.6740121 181.19940042 166.38451719 C181.30678046 168.96993718 181.32046805 171.53839294 181.29718018 174.12591553 C181.30208344 175.59399387 181.30208344 175.59399387 181.30708575 177.09173036 C181.31432152 180.34484392 181.30025214 183.59750043 181.28613281 186.85058594 C181.28692434 189.19384843 181.28902362 191.53711079 181.29232788 193.88037109 C181.29745041 200.22768694 181.28394739 206.57483992 181.26680088 212.92212963 C181.25325571 218.90251326 181.25301415 224.88289237 181.25242433 230.86328796 C181.25073877 242.7191091 181.23495728 254.57486889 181.2109375 266.43066406 C181.18770323 277.90723174 181.17351525 289.38376055 181.16992188 300.86035156 C181.16969911 301.56668762 181.16947634 302.27302368 181.16924682 303.00076386 C181.16880419 304.42392658 181.16836216 305.84708929 181.16792075 307.270252 C181.16770119 307.97247139 181.16748162 308.67469078 181.1672554 309.39818954 C181.16693142 310.44903749 181.16693142 310.44903749 181.1666009 311.52111469 C181.16266343 323.15666619 181.1499684 334.79221019 181.13690853 346.4277544 C181.13282342 350.38005613 181.12989069 354.3323575 181.12711334 358.28466034 C181.12219141 364.51289818 181.11193982 370.74110661 181.09767532 376.96932983 C181.09318257 379.24683618 181.0903209 381.52434646 181.08926773 383.80185699 C181.06905597 419.52338927 181.06905597 419.52338927 174.8046875 426.15625 C168.31990871 430.10350665 160.7957854 430.19952463 153.38386536 430.16021729 C152.4656932 430.16333727 151.54752104 430.16645725 150.60152549 430.16967177 C147.54784151 430.17760156 144.49435902 430.17134785 141.44067383 430.16503906 C139.24221175 430.1677511 137.04375059 430.17131322 134.84529114 430.17565918 C128.89104291 430.18475853 122.93686416 430.18124945 116.98261476 430.17490101 C110.74741573 430.16983025 104.51222258 430.17453528 98.27702332 430.17767334 C87.14047006 430.18154174 76.00394411 430.17533659 64.86739626 430.16515467 C54.77527005 430.15621334 44.68318984 430.15777779 34.59106445 430.16699219 C22.85789298 430.17769996 11.1247439 430.18167721 -0.60843259 430.17576766 C-6.81467723 430.17264969 -13.02089019 430.17223409 -19.2271328 430.17884064 C-25.05891515 430.18461537 -30.89061054 430.18061478 -36.7223835 430.16905212 C-38.86295807 430.16640661 -41.00353996 430.16716878 -43.14411163 430.17157745 C-46.06465383 430.17703829 -48.9849169 430.17019217 -51.90544128 430.16021729 C-52.75339758 430.16467873 -53.60135387 430.16914017 -54.47500581 430.17373681 C-60.06758798 430.13665921 -64.85770883 429.75008639 -69.3203125 426.03125 C-72.99819879 421.56524522 -73.45830282 418.05086267 -73.31640625 412.375 C-72.97157355 408.91572594 -72.09060925 406.73466545 -70.0703125 403.90625 C-66.69771164 401.1760493 -63.31550539 399.59849608 -59.3203125 398.03125 C-55.72822538 396.48593357 -55.72822538 396.48593357 -53.5703125 393.21875 C-51.79233741 381.43966505 -51.7616767 369.79929802 -52.0703125 357.90625 C-52.09786621 356.83262207 -52.09786621 356.83262207 -52.12597656 355.73730469 C-52.57733172 344.61339967 -56.24263978 334.38338008 -59.79467773 323.92700195 C-68.52641566 298.20435901 -68.62278004 270.72659584 -57.3203125 245.65625 C-55.1250736 240.57933527 -53.55746471 235.40466921 -55.0703125 229.90625 C-58.27179223 226.59967119 -62.63116458 225.49711667 -66.8828125 224.03125 C-76.73579557 220.44584056 -83.02531834 216.49477806 -88.0703125 206.90625 C-90.08887098 202.2507718 -91.17127235 198.37016778 -90.8203125 193.28125 C-89.06906548 189.90384502 -87.95095886 188.83985311 -85.0703125 186.53125 C-80.42958925 182.73226307 -77.87558212 178.56967529 -75.0078125 173.40625 C-66.39701831 158.10492457 -55.50173974 152.36629736 -39.00390625 147.1796875 C-35.71696839 145.7528676 -34.76731617 145.0156988 -33.0703125 141.90625 C-31.75588439 138.57286032 -30.5612613 135.22868974 -29.40820312 131.83789062 C-27.89002095 127.56374713 -26.34421395 124.18015145 -23.0703125 120.90625 C-19.61066742 120.16894859 -18.29151633 119.89734465 -15.0703125 120.90625 C-0.40651756 131.52935478 7.52442393 156.53581951 10.58642578 173.54199219 C12.04320419 183.57573483 12.0004662 193.85168471 11.8671875 203.96875 C11.77554373 218.13687723 15.46665038 230.33207934 25.4296875 240.65625 C27.79076421 243.03879105 29.92621108 244.4474186 32.9296875 245.90625 C34.06775601 247.04431851 35.2023472 248.18624683 36.3125 249.3515625 C38.40287097 251.36114618 40.65063979 253.11412049 42.9296875 254.90625 C46.50449909 257.73235474 49.78646784 260.59759773 52.9296875 263.90625 C53.50976562 264.4425 54.08984375 264.97875 54.6875 265.53125 C77.93818397 287.41424668 88.67916476 321.75052239 89.9296875 352.90625 C89.97462007 357.41125822 89.88556335 361.90355042 89.7421875 366.40625 C89.7122168 367.46030029 89.68224609 368.51435059 89.65136719 369.6003418 C89.22121123 379.49468088 87.59147684 389.15915424 85.9296875 398.90625 C93.20710502 398.93166267 100.48451104 398.94914324 107.76196289 398.96118164 C110.2362511 398.96620179 112.71053635 398.97301926 115.18481445 398.98168945 C118.74691498 398.99385656 122.30897619 398.99950159 125.87109375 399.00390625 C127.52305504 399.01164818 127.52305504 399.01164818 129.20838928 399.01954651 C134.54891785 399.01993416 139.68135665 398.94588025 144.9296875 397.90625 C149.41265675 393.42328075 147.06094658 375.53130031 147.06521606 369.06393433 C147.0632726 367.31256092 147.06122449 365.56118763 147.05908203 363.80981445 C147.06044013 361.92727118 147.06222235 360.04472818 147.06439209 358.16218567 C147.06891941 353.08751395 147.06719592 348.01286274 147.064013 342.9381907 C147.0614631 337.59796869 147.0638344 332.25774833 147.06539917 326.91752625 C147.06721401 317.94769987 147.06483338 308.97788176 147.06005859 300.00805664 C147.05462561 289.68349109 147.05637439 279.35894532 147.061885 269.03438026 C147.06644564 260.12856514 147.06705207 251.22275592 147.06444633 242.31694001 C147.06289865 237.0163622 147.06264775 231.71579364 147.06598282 226.41521645 C147.06890436 221.4238246 147.06680848 216.43245783 147.06108856 211.44106865 C147.0597833 209.62523566 147.06011625 207.8094005 147.06235123 205.99356842 C147.06780481 201.10626751 147.04528952 196.22097817 146.96772242 191.33424401 C146.94139803 189.65380243 146.92123005 187.97325731 146.90599585 186.29267859 C146.87488191 183.68873778 146.80904104 181.08779651 146.73410034 178.48478699 C146.7262702 177.30222839 146.7262702 177.30222839 146.71828187 176.09577972 C146.55579637 171.87080392 146.29039119 170.33924785 143.4817524 166.96768665 C142.63957098 166.28741256 141.79738956 165.60713846 140.9296875 164.90625 C140.11914917 164.1332959 140.11914917 164.1332959 139.29223633 163.34472656 C137.77769867 161.94620612 136.26142403 160.54966595 134.7421875 159.15625 C134.20916016 158.66253906 133.67613281 158.16882813 133.12695312 157.66015625 C130.24888156 154.976988 130.24888156 154.976988 126.9296875 152.90625 C126.9296875 152.24625 126.9296875 151.58625 126.9296875 150.90625 C126.37410156 150.67035156 125.81851562 150.43445313 125.24609375 150.19140625 C122.36593159 148.5934748 120.26599674 146.601245 117.8671875 144.34375 C114.17605291 140.9109017 110.42558491 137.62686908 106.4921875 134.46875 C101.95732589 130.81118736 97.67432567 126.96007973 93.41259766 122.99462891 C89.30189474 119.19226193 85.00693166 115.66354408 80.64453125 112.15234375 C77.82295255 109.8179441 75.12378038 107.38634402 72.4296875 104.90625 C67.96385024 100.79615511 63.34865583 96.94134412 58.625 93.1328125 C55.07430101 90.19962638 51.69750416 87.0930558 48.30078125 83.984375 C45.44462253 81.48111892 42.44679781 79.26100438 39.328125 77.09765625 C38.86664063 76.70449219 38.40515625 76.31132813 37.9296875 75.90625 C37.9296875 75.24625 37.9296875 74.58625 37.9296875 73.90625 C37.33526855 73.63022949 36.74084961 73.35420898 36.12841797 73.06982422 C34.04694026 71.96830048 32.50757926 70.84121751 30.75 69.2890625 C30.15807861 68.77061768 29.56615723 68.25217285 28.95629883 67.71801758 C28.32876709 67.16138428 27.70123535 66.60475098 27.0546875 66.03125 C25.70733795 64.84991052 24.3596745 63.66892897 23.01171875 62.48828125 C22.33061035 61.88967285 21.64950195 61.29106445 20.94775391 60.67431641 C16.2077393 56.52149935 11.41438652 52.43025287 6.6171875 48.34375 C5.47821388 47.37351321 4.34021509 46.40213106 3.203125 45.4296875 C1.55355693 44.02115221 -0.1012311 42.61902533 -1.7578125 41.21875 C-2.71042969 40.41050781 -3.66304687 39.60226563 -4.64453125 38.76953125 C-7.00464903 36.74640973 -7.00464903 36.74640973 -10.0703125 35.90625 C-12.15768688 37.1170602 -12.15768688 37.1170602 -14.3203125 39.03125 C-15.19300781 39.75957031 -16.06570312 40.48789063 -16.96484375 41.23828125 C-18.00108434 42.12634046 -19.03613668 43.01578715 -20.0703125 43.90625 C-20.69212402 44.43782715 -21.31393555 44.9694043 -21.95458984 45.51708984 C-25.26368604 48.34850134 -28.56297935 51.19106908 -31.84765625 54.05078125 C-32.39671631 54.52878174 -32.94577637 55.00678223 -33.51147461 55.49926758 C-34.57516506 56.45933775 -35.6125099 57.4492137 -36.625 58.46313477 C-38.65864274 60.49368582 -40.89244229 62.23250672 -43.1328125 64.03125 C-46.87060345 67.06667024 -50.5127198 70.16172546 -54.0703125 73.40625 C-57.44492198 76.48278672 -60.88847114 79.41743217 -64.4453125 82.28125 C-68.45857534 85.52577517 -72.29446634 88.89372183 -76.0703125 92.40625 C-80.60423871 96.62021119 -85.28271708 100.58850067 -90.1015625 104.47265625 C-93.58362981 107.32703511 -96.98674137 110.26303899 -100.3828125 113.21875 C-101.32785645 114.04125244 -101.32785645 114.04125244 -102.29199219 114.88037109 C-103.57424545 115.99655135 -104.85647189 117.11276243 -106.13867188 118.22900391 C-109.29248709 120.96746581 -112.46146211 123.68813222 -115.6328125 126.40625 C-116.19202393 126.88618408 -116.75123535 127.36611816 -117.32739258 127.8605957 C-119.9618593 130.1175203 -122.60904885 132.35506145 -125.28515625 134.5625 C-127.33641922 136.288668 -129.18587526 138.01669201 -131.0703125 139.90625 C-132.72597467 141.27384933 -134.39414841 142.62635696 -136.0703125 143.96875 C-140.97590795 147.95131893 -145.64497036 152.12773252 -150.28515625 156.4140625 C-154.0094809 159.7466279 -157.91118666 162.83129132 -161.85546875 165.8984375 C-165.39876779 169.1105287 -166.01233162 170.99671911 -166.32199478 175.85432434 C-166.33300845 177.49895622 -166.33291812 179.14368401 -166.32427979 180.78833008 C-166.32895976 182.14904617 -166.32895976 182.14904617 -166.33373427 183.53725147 C-166.34172531 186.58349374 -166.33538628 189.62953742 -166.32910156 192.67578125 C-166.33181093 194.85704668 -166.33537156 197.0383112 -166.33972168 199.21957397 C-166.34885437 205.14919138 -166.34529778 211.07873935 -166.33896351 217.008358 C-166.33390808 223.20715271 -166.33859369 229.40594139 -166.34173584 235.60473633 C-166.34561019 246.68275216 -166.33938588 257.7607372 -166.32921717 268.8387481 C-166.32028159 278.8843764 -166.32183361 288.92995847 -166.33105469 298.97558594 C-166.34171866 310.63948599 -166.34574256 322.30335711 -166.33983016 333.96726131 C-166.3367084 340.14221749 -166.33630679 346.31714181 -166.34290314 352.49209595 C-166.34867049 358.2967204 -166.34469085 364.10125737 -166.33311462 369.90587234 C-166.33046477 372.03921997 -166.33123864 374.17257492 -166.33563995 376.30591965 C-166.34108398 379.21210328 -166.33427509 382.11800441 -166.32427979 385.02416992 C-166.32874123 385.8735806 -166.33320267 386.72299128 -166.33779931 387.59814167 C-166.39975136 393.10277283 -166.39975136 393.10277283 -164.0703125 397.90625 C-159.99646496 399.0210025 -156.02698457 399.0051534 -151.82421875 398.93359375 C-150.65697266 398.92134766 -149.48972656 398.90910156 -148.28710938 398.89648438 C-145.85475731 398.86138362 -143.42245897 398.82233356 -140.99023438 398.77929688 C-126.74722734 398.64574413 -126.74722734 398.64574413 -121.2578125 403.28125 C-117.34171753 407.98056396 -116.62048154 411.39390199 -116.75390625 417.43359375 C-117.22486653 421.11406114 -118.6095063 423.1794107 -121.0703125 425.90625 C-125.83630783 429.45019524 -130.46411395 430.02654484 -136.28442383 430.05151367 C-137.8067437 430.06108345 -137.8067437 430.06108345 -139.3598175 430.07084656 C-140.44635117 430.07195938 -141.53288483 430.0730722 -142.65234375 430.07421875 C-143.78048996 430.07754715 -144.90863617 430.08087555 -146.07096863 430.08430481 C-148.45559278 430.08936228 -150.840224 430.0917135 -153.22485352 430.09155273 C-156.85900645 430.0937357 -160.49285401 430.11189457 -164.12695312 430.13085938 C-166.44791563 430.1337943 -168.76887958 430.13577843 -171.08984375 430.13671875 C-172.17030472 430.14390427 -173.25076569 430.15108978 -174.3639679 430.15849304 C-181.36883098 430.13745369 -187.727996 429.9116399 -193.8828125 426.21875 C-199.4405126 420.34346704 -199.50536743 414.04025482 -199.45799255 406.36158752 C-199.46337809 405.31177812 -199.46876363 404.26196872 -199.47431237 403.18034691 C-199.488599 399.6690209 -199.48148627 396.15807151 -199.47436523 392.64672852 C-199.4800684 390.12668556 -199.48703245 387.60664518 -199.49516296 385.08660889 C-199.51125105 378.95601089 -199.51319388 372.82555155 -199.50795006 366.69493885 C-199.50390467 361.71089591 -199.5053563 356.72688322 -199.51069832 351.74284172 C-199.51144674 351.03283209 -199.51219516 350.32282247 -199.51296626 349.5912974 C-199.51449778 348.14880498 -199.51603613 346.70631257 -199.51758123 345.26382016 C-199.53130124 331.74408732 -199.52587204 318.22441237 -199.51439602 304.70468085 C-199.50446352 292.34324096 -199.51740542 279.98195075 -199.54133021 267.62053395 C-199.56572769 254.91891875 -199.57532753 242.21737325 -199.56867748 229.51573509 C-199.56518678 222.38827437 -199.56740749 215.26092877 -199.58492851 208.13348579 C-199.60119941 201.43162554 -199.59645885 194.73009674 -199.57762337 188.02822876 C-199.57393333 185.56920871 -199.57705795 183.11016753 -199.58750916 180.65116692 C-199.60069156 177.29307941 -199.58919466 173.93594273 -199.57151794 170.57789612 C-199.58112295 169.60599998 -199.59072796 168.63410383 -199.60062402 167.63275629 C-199.51787855 159.98704312 -197.63195206 154.32644576 -192.22265625 148.81640625 C-191.16268286 147.85420541 -190.09058154 146.90522491 -189.0078125 145.96875 C-188.43562988 145.45715332 -187.86344727 144.94555664 -187.27392578 144.41845703 C-182.87564696 140.51740674 -178.33387686 136.79757558 -173.75 133.1171875 C-170.93777935 130.7969005 -168.25233987 128.37553866 -165.5703125 125.90625 C-161.19727155 121.88527591 -156.68932092 118.10435481 -152.0703125 114.37109375 C-146.62296377 109.89547259 -141.33236932 105.23711676 -136.01855469 100.60449219 C-132.83102318 97.82598728 -129.63906053 95.05260576 -126.4453125 92.28125 C-125.825354 91.74306641 -125.20539551 91.20488281 -124.56665039 90.65039062 C-119.95755828 86.65669128 -115.30418008 82.71813503 -110.63671875 78.79296875 C-107.34766531 76.01681225 -104.12809349 73.17833254 -100.9453125 70.28125 C-96.68565132 66.40757754 -92.26436453 62.77671906 -87.7890625 59.15625 C-85.14883521 56.97123431 -82.6030153 54.71453609 -80.0703125 52.40625 C-75.77039459 48.48733748 -71.31111703 44.81454131 -66.7890625 41.15625 C-63.29123099 38.26149289 -59.95245846 35.21035461 -56.59765625 32.15234375 C-54.00068857 29.84437402 -51.33627237 27.65069137 -48.6328125 25.46875 C-44.88378394 22.43907286 -41.29058383 19.31020052 -37.7578125 16.03125 C-33.54101119 12.1658488 -29.22198615 8.47971106 -24.7578125 4.90625 C-24.18313232 4.43719238 -23.60845215 3.96813477 -23.01635742 3.48486328 C-16.14970712 -1.93161896 -8.11982148 -4.28971701 0 0 Z M1.6171875 327.84375 C0.70524728 328.85022061 -0.18885115 329.87298142 -1.0703125 330.90625 C-1.59625 331.49148438 -2.1221875 332.07671875 -2.6640625 332.6796875 C-14.07901531 346.22197242 -21.14965618 364.68449204 -20.328125 382.51171875 C-19.40004052 391.72109146 -19.40004052 391.72109146 -14.0703125 398.90625 C-9.81480195 400.00096467 -6.25573557 400.30139102 -2.0703125 398.90625 C-2.5891577 393.97722056 -4.1952559 389.88018686 -6.1328125 385.37109375 C-10.28598327 374.45171559 -8.05501645 362.7725765 -3.5234375 352.34765625 C-0.58881546 346.18420408 2.69971429 340.36116035 6.765625 334.87109375 C8.1477266 332.53821756 8.62103462 330.59153006 8.9296875 327.90625 C8.5996875 327.24625 8.2696875 326.58625 7.9296875 325.90625 C3.93788789 325.47810342 3.93788789 325.47810342 1.6171875 327.84375 Z " fill="#50A1FA" transform="translate(259.0703125,43.09375)"/>
<path d="M0 0 C2.17509128 4.35018256 3.12475767 7.39658224 3.12584114 12.20125389 C3.12844889 13.03659924 3.13105664 13.87194459 3.13374341 14.73260343 C3.13151268 15.64522998 3.12928196 16.55785653 3.12698364 17.49813843 C3.12854363 18.47173077 3.13010362 19.44532312 3.13171089 20.44841826 C3.13570836 23.72002197 3.13253595 26.99157951 3.12939453 30.26318359 C3.13074921 32.60556058 3.13252953 34.94793735 3.13470459 37.29031372 C3.13927345 43.66271977 3.13749093 50.03510967 3.1343255 56.407516 C3.13205247 62.40320637 3.1337866 68.39889524 3.1352527 74.39458556 C3.13810594 87.00598887 3.13482406 99.61738491 3.12945233 112.22878702 C3.12499478 123.02736557 3.12575185 133.82593336 3.13037109 144.62451172 C3.13573749 157.17552067 3.13782038 169.72652323 3.13475883 182.27753317 C3.13318311 188.91669714 3.13298092 195.55585513 3.13629532 202.19501877 C3.13919838 208.44779314 3.13715379 214.70054734 3.13140106 220.95331955 C3.13008591 223.24049852 3.13044627 225.52767921 3.13266373 227.81485748 C3.14272717 239.25580037 3.09283139 250.60073019 2 262 C1.67 262 1.34 262 1 262 C0.67 175.54 0.34 89.08 0 0 Z " fill="#091C25" transform="translate(437,199)"/>
<path d="M0 0 C0.66 0 1.32 0 2 0 C2 2.31 2 4.62 2 7 C2.33 7 2.66 7 3 7 C3.02476266 12.46264314 3.04288974 17.92525343 3.05493164 23.38793945 C3.05995303 25.24536712 3.06677141 27.10279085 3.07543945 28.96020508 C3.08760117 31.63363621 3.09325033 34.30701496 3.09765625 36.98046875 C3.10281754 37.80773972 3.10797882 38.63501068 3.11329651 39.48735046 C3.1136812 43.4622534 2.98980119 47.11956833 2 51 C1.34 51 0.68 51 0 51 C0 34.17 0 17.34 0 0 Z " fill="#4AA8F2" transform="translate(406,364)"/>
<path d="M0 0 C3 1 3 1 4.6875 3.4375 C6.39236329 8.06498606 6.26008597 12.12579634 6 17 C4.68 16.67 3.36 16.34 2 16 C2.04125 14.783125 2.0825 13.56625 2.125 12.3125 C2.1375955 8.74797463 1.49243041 6.26469152 0 3 C0 2.01 0 1.02 0 0 Z " fill="#417DBE" transform="translate(136,446)"/>
<path d="M0 0 C0.99 0.33 1.98 0.66 3 1 C3 7.93 3 14.86 3 22 C2.01 21.34 1.02 20.68 0 20 C-0.34057617 17.93701172 -0.34057617 17.93701172 -0.29296875 15.4296875 C-0.28330078 14.53378906 -0.27363281 13.63789063 -0.26367188 12.71484375 C-0.23853516 11.77769531 -0.21339844 10.84054687 -0.1875 9.875 C-0.17396484 8.93011719 -0.16042969 7.98523438 -0.14648438 7.01171875 C-0.11106306 4.67391221 -0.06167271 2.33723763 0 0 Z " fill="#47ABF2" transform="translate(406,298)"/>
<path d="M0 0 C2.76731665 5.53463331 3.12228884 9.18321297 3.09765625 15.390625 C3.09553383 16.44754547 3.09553383 16.44754547 3.09336853 17.52581787 C3.08778933 19.76725584 3.07524073 22.00859243 3.0625 24.25 C3.05748231 25.77343605 3.05291987 27.29687368 3.04882812 28.8203125 C3.03782674 32.54690772 3.02057646 36.27344396 3 40 C2.34 39.67 1.68 39.34 1 39 C0.67 26.13 0.34 13.26 0 0 Z " fill="#103243" transform="translate(437,199)"/>
<path d="M0 0 C0.33 0 0.66 0 1 0 C1.1972935 3.41617497 1.38112295 6.83294593 1.5625 10.25 C1.61857422 11.21808594 1.67464844 12.18617188 1.73242188 13.18359375 C1.78076172 14.11816406 1.82910156 15.05273438 1.87890625 16.015625 C1.94960327 17.30388184 1.94960327 17.30388184 2.02172852 18.61816406 C2.00066921 20.92664265 1.66206871 22.79756267 1 25 C0.34 25 -0.32 25 -1 25 C-1.02886984 21.02084841 -1.04675406 17.04172347 -1.0625 13.0625 C-1.07087891 11.92619141 -1.07925781 10.78988281 -1.08789062 9.61914062 C-1.09111328 8.53955078 -1.09433594 7.45996094 -1.09765625 6.34765625 C-1.10289307 5.34742432 -1.10812988 4.34719238 -1.11352539 3.31665039 C-1 1 -1 1 0 0 Z " fill="#44A7EE" transform="translate(407,270)"/>
<path d="M0 0 C0 0.66 0 1.32 0 2 C-3.14930893 3.04976964 -5.38814456 3.10131595 -8.6875 3.0625 C-9.68136719 3.05347656 -10.67523438 3.04445313 -11.69921875 3.03515625 C-12.83810547 3.01775391 -12.83810547 3.01775391 -14 3 C-14 2.34 -14 1.68 -14 1 C-9.27685687 0.22887459 -4.78478822 -0.09764874 0 0 Z " fill="#44B4FA" transform="translate(425,470)"/>
<path d="M0 0 C0.33 0 0.66 0 1 0 C1 5.28 1 10.56 1 16 C0.01 15.67 -0.98 15.34 -2 15 C-2 12.69 -2 10.38 -2 8 C-1.34 8 -0.68 8 0 8 C0 5.36 0 2.72 0 0 Z " fill="#48AEF6" transform="translate(408,225)"/>
<path d="M0 0 C0.33 0 0.66 0 1 0 C1.22354607 1.89409978 1.42819951 3.7904348 1.625 5.6875 C1.74101562 6.74324219 1.85703125 7.79898437 1.9765625 8.88671875 C2.0010326 12.13716346 1.40852563 14.10230796 0 17 C-0.33 17 -0.66 17 -1 17 C-1.10477512 11.21408489 -0.99250545 5.70690634 0 0 Z " fill="#5596EC" transform="translate(407,415)"/>
<path d="M0 0 C0.66 0 1.32 0 2 0 C2.33 2.31 2.66 4.62 3 7 C2.01 7.33 1.02 7.66 0 8 C0 5.36 0 2.72 0 0 Z " fill="#41B1F3" transform="translate(406,353)"/>
<path d="M0 0 C3 1 3 1 5 4 C4.67 4.99 4.34 5.98 4 7 C2 5.1875 2 5.1875 0 3 C0 2.01 0 1.02 0 0 Z " fill="#386BA2" transform="translate(136,446)"/>
<path d="M0 0 C2.0625 2.25 2.0625 2.25 4 5 C3.75 7.3125 3.75 7.3125 3 9 C0.70620251 5.55930376 0 4.27709699 0 0 Z " fill="#376AA1" transform="translate(274,271)"/>
<path d="M0 0 C0.99 0 1.98 0 3 0 C5.125 4.625 5.125 4.625 4 8 C1.10067643 5.60490662 0.49831724 3.68754757 0 0 Z " fill="#316EA2" transform="translate(260,194)"/>
<path d="" fill="#26C2E9" transform="translate(0,0)"/>
<path d="" fill="#3AAEE9" transform="translate(0,0)"/>
<path d="M0 0 C2 1 2 1 2 1 Z " fill="#3AB9F4" transform="translate(85,174)"/>
<path d="" fill="#00E9E9" transform="translate(0,0)"/>
<path d="" fill="#00E9E9" transform="translate(0,0)"/>
<path d="" fill="#00E9E9" transform="translate(0,0)"/>
<path d="" fill="#00E9E9" transform="translate(0,0)"/>
<path d="" fill="#00E9E9" transform="translate(0,0)"/>
<path d="" fill="#00E9E9" transform="translate(0,0)"/>
<path d="" fill="#00E9E9" transform="translate(0,0)"/>
<path d="" fill="#00E9E9" transform="translate(0,0)"/>
<path d="" fill="#00E9E9" transform="translate(0,0)"/>
<path d="" fill="#00E9E9" transform="translate(0,0)"/>
<path d="" fill="#00E9E9" transform="translate(0,0)"/>
<path d="" fill="#00E9E9" transform="translate(0,0)"/>
<path d="" fill="#00E9E9" transform="translate(0,0)"/>
<path d="" fill="#00E9E9" transform="translate(0,0)"/>
<path d="" fill="#00E9E9" transform="translate(0,0)"/>
<path d="" fill="#00E9E9" transform="translate(0,0)"/>
<path d="" fill="#00E9E9" transform="translate(0,0)"/>
<path d="" fill="#00E9E9" transform="translate(0,0)"/>
<path d="" fill="#00E9E9" transform="translate(0,0)"/>
<path d="" fill="#7474E9" transform="translate(0,0)"/>
<path d="" fill="#00E9E9" transform="translate(0,0)"/>
<path d="" fill="#00E9E9" transform="translate(0,0)"/>
<path d="" fill="#00E9E9" transform="translate(0,0)"/>
<path d="" fill="#00E9E9" transform="translate(0,0)"/>
<path d="" fill="#00E9E9" transform="translate(0,0)"/>
<path d="" fill="#00E9E9" transform="translate(0,0)"/>
<path d="" fill="#7474E9" transform="translate(0,0)"/>
<path d="" fill="#00E9E9" transform="translate(0,0)"/>
<path d="" fill="#00E9E9" transform="translate(0,0)"/>
<path d="" fill="#00E9E9" transform="translate(0,0)"/>
<path d="" fill="#00E9E9" transform="translate(0,0)"/>
<path d="" fill="#7474E9" transform="translate(0,0)"/>
<path d="" fill="#00E9E9" transform="translate(0,0)"/>
<path d="" fill="#00E9E9" transform="translate(0,0)"/>
<path d="" fill="#00E9E9" transform="translate(0,0)"/>
<path d="" fill="#00E9E9" transform="translate(0,0)"/>
<path d="" fill="#7474E9" transform="translate(0,0)"/>
<path d="" fill="#00E9E9" transform="translate(0,0)"/>
</svg>
